<?xml version="1.0" encoding="UTF-8"?> <svg xmlns="http://www.w3.org/2000/svg" width="112" height="112" viewBox="0 0 112 112" fill="none"> <path fill-rule="evenodd" clip-rule="evenodd" d="M56 112C86.9279 112 112 86.9279 112 56C112 25.0721 86.9279 0 56 0C25.0721 0 0 25.0721 0 56C0 86.9279 25.0721 112 56 112ZM83.8447 30.2673C87.2129 35.0763 89.2784 40.6757 89.84 46.52C90.3301 51.5186 89.7013 56.5637 87.9993 61.2891C86.2973 66.0145 83.5648 70.3018 80 73.84L58.88 95.08C58.5081 95.4549 58.0657 95.7525 57.5783 95.9556C57.0909 96.1586 56.568 96.2632 56.04 96.2632C55.512 96.2632 54.9891 96.1586 54.5017 95.9556C54.0143 95.7525 53.5719 95.4549 53.2 95.08L32 73.84C28.4352 70.3018 25.7027 66.0145 24.0007 61.2891C22.2987 56.5637 21.6699 51.5186 22.16 46.52C22.6596 41.4884 24.2673 36.6299 26.8678 32.2936C29.4682 27.9572 32.9968 24.2506 37.2 21.44C42.0925 18.1942 47.7422 16.2707 53.5989 15.8568C59.4555 15.4429 65.3196 16.5526 70.62 19.078C75.9204 21.6033 80.4765 25.4582 83.8447 30.2673ZM56 86.6L74.4 68.2C77.1227 65.4793 79.2063 62.1873 80.4999 58.5622C81.7936 54.9371 82.265 51.0697 81.88 47.24C81.4933 43.3784 80.2562 39.6504 78.2574 36.3238C76.2587 32.9971 73.548 30.1545 70.32 28C66.0762 25.1809 61.0948 23.6772 56 23.6772C50.9052 23.6772 45.9238 25.1809 41.68 28C38.4422 30.1628 35.7255 33.0181 33.7263 36.3594C31.7271 39.7006 30.4953 43.4444 30.12 47.32C29.7471 51.1368 30.2245 54.9888 31.5179 58.599C32.8112 62.2093 34.8884 65.4882 37.6 68.2L56 86.6ZM45.9997 35.0335C48.9598 33.0557 52.4399 32 56 32C60.7706 32.0106 65.3429 33.9104 68.7162 37.2837C72.0896 40.6571 73.9894 45.2294 74 50C74 53.5601 72.9443 57.0402 70.9665 60.0003C68.9886 62.9603 66.1774 65.2675 62.8883 66.6298C59.5992 67.9922 55.98 68.3487 52.4884 67.6541C48.9967 66.9596 45.7894 65.2453 43.2721 62.7279C40.7547 60.2106 39.0404 57.0033 38.3459 53.5116C37.6513 50.02 38.0078 46.4008 39.3702 43.1117C40.7325 39.8226 43.0397 37.0114 45.9997 35.0335ZM50.4443 58.3147C52.0888 59.4135 54.0222 60 56 60C58.6522 60 61.1957 58.9464 63.0711 57.0711C64.9464 55.1957 66 52.6522 66 50C66 48.0222 65.4135 46.0888 64.3147 44.4443C63.2159 42.7998 61.6541 41.5181 59.8268 40.7612C57.9996 40.0043 55.9889 39.8063 54.0491 40.1921C52.1093 40.578 50.3275 41.5304 48.9289 42.9289C47.5304 44.3275 46.578 46.1093 46.1921 48.0491C45.8063 49.9889 46.0043 51.9996 46.7612 53.8268C47.5181 55.6541 48.7998 57.2159 50.4443 58.3147Z" fill="#A6658F"></path> </svg> 