<?xml version="1.0" encoding="UTF-8"?> <svg xmlns="http://www.w3.org/2000/svg" width="119" height="119" viewBox="0 0 119 119" fill="none"> <path fill-rule="evenodd" clip-rule="evenodd" d="M59.4995 118.999C26.6388 118.999 0 92.3602 0 59.4995C0 26.6388 26.6388 0 59.4995 0C92.3602 0 118.999 26.6388 118.999 59.4995C118.999 92.3602 92.3602 118.999 59.4995 118.999ZM79.4005 63.4258C79.9948 63.5706 80.6015 63.7185 81.187 63.7185C83.4605 64.1664 85.5096 65.3854 86.9882 67.1695C88.4668 68.9536 89.2842 71.1934 89.3023 73.5105V83.5708C89.3042 84.9884 89.0064 86.3905 88.4285 87.685C87.8505 88.9795 87.0056 90.1373 85.9489 91.0824C84.1025 92.7274 81.7149 93.6347 79.242 93.631C78.8067 93.6643 78.3695 93.6643 77.9342 93.631C63.9768 91.8081 51.0107 85.4312 41.0466 75.489C31.1044 65.5248 24.7274 52.5588 22.9045 38.6014C22.7076 37.1627 22.8244 35.6984 23.2469 34.3091C23.6695 32.9198 24.3878 31.6385 25.3525 30.5531C26.2977 29.4965 27.4554 28.6515 28.75 28.0736C30.0445 27.4957 31.4465 27.1979 32.8642 27.1997H42.958C45.3547 27.1649 47.6851 27.9869 49.5295 29.5177C51.3738 31.0486 52.6111 33.1877 53.0183 35.5497C53.1189 36.2875 53.253 37.0588 53.4207 37.7965C53.7591 39.2991 54.196 40.7778 54.7285 42.2231C55.2945 43.7787 55.2651 45.4888 54.646 47.0241C54.0269 48.5594 52.8619 49.8116 51.3751 50.5395L49.8325 51.2438C51.6796 54.5005 53.9333 57.5092 56.5394 60.1974C59.2276 62.8035 62.2362 65.0572 65.493 66.9042L66.2308 65.3617C66.9587 63.8749 68.2109 62.7098 69.7462 62.0908C71.2815 61.4717 72.9916 61.4423 74.5473 62.0082C75.9796 62.5453 77.4474 62.9823 78.9402 63.3161C79.0924 63.3507 79.2461 63.3881 79.4005 63.4258ZM82.5395 85.1969C82.7301 84.7695 82.8291 84.307 82.8302 83.839L82.5284 73.477C82.5473 72.7018 82.2971 71.944 81.8202 71.3326C81.3433 70.7211 80.6692 70.2939 79.9127 70.1235C79.0073 69.9894 78.0683 69.8217 77.1965 69.6205C75.3981 69.2241 73.6281 68.7088 71.898 68.0779L69.7854 72.7727C69.415 73.5797 68.7396 74.2068 67.9075 74.5165C67.091 74.8519 66.1753 74.8519 65.3589 74.5165C55.0211 69.6903 46.7112 61.3803 41.8849 51.0426C41.5495 50.2261 41.5495 49.3104 41.8849 48.494C42.1946 47.6618 42.8217 46.9865 43.6287 46.616L48.3235 44.4028C47.6841 42.7213 47.1685 40.9952 46.7809 39.2385C46.7328 39.0219 46.6789 38.8033 46.6247 38.5837C46.4526 37.8857 46.2779 37.1775 46.2779 36.4887C46.1075 35.7322 45.6803 35.0582 45.0689 34.5813C44.4575 34.1044 43.6997 33.8541 42.9245 33.873H32.8642C32.3906 33.8694 31.9216 33.9662 31.4881 34.1569C31.0546 34.3477 30.6664 34.6281 30.3491 34.9797C30.0143 35.3472 29.7654 35.7846 29.6204 36.2602C29.4754 36.7358 29.4379 37.2376 29.5108 37.7295C31.1608 50.296 36.9134 61.9662 45.8755 70.9283C54.83 79.8216 66.4597 85.5245 78.9738 87.1589C79.4656 87.2318 79.9675 87.1943 80.4431 87.0493C80.9187 86.9043 81.356 86.6554 81.7236 86.3206C82.071 86.007 82.3489 85.6243 82.5395 85.1969ZM60.6976 26.8308H63.045C70.1543 26.8397 76.9693 29.6701 81.9932 34.7002C87.017 39.7304 89.8389 46.549 89.8389 53.6582V56.0056C89.7633 56.8417 89.3769 57.619 88.756 58.184C88.1351 58.7491 87.3249 59.0606 86.4854 59.0572H86.2172C85.3327 58.9805 84.5148 58.5561 83.9427 57.8772C83.3707 57.1983 83.0912 56.3202 83.1655 55.4355V53.6582C83.1655 48.3219 81.0457 43.2042 77.2724 39.4309C73.499 35.6575 68.3813 33.5377 63.045 33.5377H61.2677C60.3783 33.6133 59.4953 33.3325 58.813 32.7571C58.1306 32.1816 57.7048 31.3587 57.6292 30.4693C57.5536 29.5799 57.8344 28.6969 58.4099 28.0146C58.9853 27.3322 59.8082 26.9064 60.6976 26.8308ZM70.734 56.0295C70.1052 55.4006 69.7519 54.5476 69.7519 53.6582C69.7519 51.8795 69.0452 50.1735 67.7875 48.9158C66.5297 47.658 64.8238 46.9514 63.045 46.9514C62.1556 46.9514 61.3027 46.5981 60.6738 45.9692C60.0449 45.3403 59.6916 44.4873 59.6916 43.598C59.6916 42.7086 60.0449 41.8556 60.6738 41.2267C61.3027 40.5978 62.1556 40.2445 63.045 40.2445C66.6025 40.2445 70.0144 41.6578 72.5299 44.1733C75.0455 46.6889 76.4587 50.1007 76.4587 53.6582C76.4587 54.5476 76.1054 55.4006 75.4765 56.0295C74.8476 56.6583 73.9947 57.0116 73.1053 57.0116C72.2159 57.0116 71.3629 56.6583 70.734 56.0295Z" fill="#FDACBB"></path> </svg> 