<?xml version="1.0" encoding="UTF-8"?> <svg xmlns="http://www.w3.org/2000/svg" width="143" height="143" viewBox="0 0 143 143" fill="none"> <path d="M69.1776 1.84018C70.3779 0.372238 72.6221 0.372239 73.8224 1.84018L75.1318 3.44153C76.203 4.75155 78.1451 4.91684 79.4223 3.8067L80.9836 2.44968C82.4147 1.20571 84.6266 1.58498 85.5616 3.23466L86.5815 5.03427C87.4159 6.50648 89.3022 6.99761 90.7486 6.11929L92.5167 5.04564C94.1375 4.06143 96.2535 4.80905 96.8962 6.59301L97.5974 8.53912C98.171 10.1312 99.9471 10.934 101.521 10.3128L103.445 9.55336C105.209 8.85723 107.168 9.9517 107.5 11.8186L107.862 13.8552C108.159 15.5213 109.774 16.6128 111.43 16.2665L113.455 15.8432C115.311 15.4551 117.057 16.865 117.069 18.7612L117.081 20.8297C117.092 22.5219 118.499 23.8705 120.19 23.8092L122.257 23.7341C124.152 23.6654 125.635 25.35 125.326 27.2209L124.989 29.2618C124.713 30.9314 125.872 32.4985 127.55 32.7238L129.6 32.9992C131.479 33.2517 132.656 35.1627 132.035 36.9545L131.358 38.9091C130.804 40.5081 131.682 42.2485 133.297 42.754L135.271 43.3719C137.08 43.9384 137.917 46.0207 137.003 47.6818L136.005 49.4939C135.189 50.9763 135.759 52.84 137.266 53.6112L139.107 54.5538C140.795 55.418 141.268 57.6118 140.086 59.0944L138.796 60.7118C137.741 62.035 137.989 63.9683 139.343 64.9829L140.998 66.2232C142.516 67.3602 142.611 69.6023 141.196 70.8639L139.651 72.2401C138.388 73.3659 138.305 75.3133 139.469 76.5422L140.891 78.0444C142.194 79.4215 141.909 81.6475 140.301 82.6517L138.546 83.7471C137.11 84.6432 136.7 86.5486 137.639 87.9564L138.786 89.6774C139.839 91.2549 139.181 93.4007 137.426 94.1186L135.512 94.9017C133.945 95.5424 133.219 97.3509 133.906 98.8972L134.747 100.787C135.517 102.52 134.507 104.524 132.655 104.935L130.636 105.383C128.984 105.75 127.962 107.41 128.378 109.05L128.887 111.055C129.354 112.893 128.019 114.697 126.125 114.789L124.059 114.89C122.369 114.972 121.081 116.435 121.214 118.122L121.377 120.184C121.526 122.075 119.906 123.628 118.024 123.398L115.97 123.148C114.29 122.944 112.774 124.168 112.62 125.853L112.432 127.913C112.259 129.802 110.4 131.058 108.584 130.514L106.602 129.921C104.981 129.435 103.279 130.386 102.843 132.021L102.309 134.019C101.82 135.851 99.7751 136.776 98.0767 135.933L96.2239 135.013C94.7082 134.26 92.8704 134.91 92.1639 136.447L91.3002 138.327C90.5085 140.05 88.3368 140.615 86.8053 139.497L85.1346 138.278C83.7678 137.28 81.8468 137.609 80.8905 139.005L79.7216 140.712C78.6501 142.276 76.414 142.467 75.0935 141.106L73.653 139.621C72.4746 138.407 70.5254 138.407 69.347 139.621L67.9065 141.106C66.586 142.467 64.3499 142.276 63.2784 140.712L62.1095 139.005C61.1532 137.609 59.2321 137.28 57.8654 138.278L56.1947 139.497C54.6632 140.615 52.4915 140.05 51.6998 138.327L50.8361 136.447C50.1296 134.91 48.2918 134.26 46.7761 135.013L44.9233 135.933C43.2249 136.776 41.1799 135.851 40.6908 134.019L40.1572 132.021C39.7207 130.386 38.0191 129.435 36.398 129.921L34.4164 130.514C32.5999 131.058 30.7406 129.802 30.5681 127.913L30.38 125.853C30.226 124.168 28.7095 122.944 27.0297 123.148L24.9763 123.398C23.094 123.628 21.4738 122.075 21.623 120.184L21.7857 118.122C21.9188 116.435 20.631 114.972 18.9408 114.89L16.8747 114.789C14.9807 114.697 13.6463 112.893 14.1127 111.055L14.6216 109.05C15.0378 107.41 14.0159 105.75 12.3639 105.383L10.3445 104.935C8.49335 104.524 7.48302 102.52 8.25338 100.787L9.09376 98.8972C9.78125 97.3509 9.05451 95.5424 7.48824 94.9017L5.57365 94.1186C3.81857 93.4007 3.16143 91.2549 4.21354 89.6774L5.36126 87.9564C6.30019 86.5486 5.88955 84.6432 4.45408 83.7471L2.69938 82.6516C1.09087 81.6475 0.805819 79.4215 2.1094 78.0444L3.53146 76.5422C4.69481 75.3133 4.61209 73.3659 3.34871 72.2401L1.80438 70.8639C0.388705 69.6023 0.48395 67.3602 2.00151 66.2232L3.65699 64.9829C5.01129 63.9683 5.25887 62.035 4.20393 60.7118L2.91439 59.0944C1.73228 57.6118 2.20508 55.418 3.89296 54.5538L5.73424 53.6112C7.24053 52.84 7.81128 50.9763 6.99513 49.4939L5.99748 47.6818C5.08295 46.0207 5.9197 43.9384 7.72934 43.3719L9.70344 42.754C11.3184 42.2485 12.1959 40.5081 11.642 38.9091L10.965 36.9545C10.3443 35.1627 11.521 33.2517 13.4003 32.9992L15.4504 32.7238C17.1276 32.4985 18.2866 30.9314 18.0109 29.2618L17.6739 27.2209C17.365 25.35 18.8477 23.6654 20.7427 23.7341L22.8099 23.8092C24.501 23.8705 25.9081 22.5219 25.9186 20.8297L25.9314 18.7612C25.9431 16.865 27.6891 15.4551 29.5452 15.8432L31.57 16.2665C33.2264 16.6128 34.8413 15.5213 35.1376 13.8552L35.4998 11.8186C35.8318 9.9517 37.7909 8.85723 39.5548 9.55336L41.4789 10.3128C43.0529 10.934 44.829 10.1312 45.4026 8.53911L46.1038 6.59302C46.7465 4.80905 48.8625 4.06143 50.4833 5.04564L52.2514 6.11929C53.6978 6.99761 55.5841 6.50648 56.4185 5.03427L57.4384 3.23466C58.3734 1.58498 60.5853 1.20571 62.0164 2.44968L63.5777 3.8067C64.8549 4.91684 66.797 4.75155 67.8682 3.44153L69.1776 1.84018Z" fill="#DC94B8"></path> </svg> 